<svg width="40" height="40" viewBox="0 0 40 40" fill="none" xmlns="http://www.w3.org/2000/svg">
<g clip-path="url(#clip0_121_1667)">
<path d="M1.37927 2.75867H22.0689V40H1.37927V2.75867Z" fill="#5AAAE7"/>
<path d="M22.069 8.27588H37.2414V40H22.069V8.27588Z" fill="#3D9AE2"/>
<path d="M12.4138 31.7241H7.58618V40H15.862V31.7241H12.4138Z" fill="#E6E7E8"/>
<path d="M39.3103 20.6897H28.2758C27.895 20.6897 27.5862 20.9985 27.5862 21.3794V28.2759C27.5862 28.6568 27.895 28.9656 28.2758 28.9656H30.3448V32.4138L33.7931 28.9656H39.3103C39.6912 28.9656 40 28.6568 40 28.2759V21.3794C40 20.9985 39.6912 20.6897 39.3103 20.6897Z" fill="#FFD422"/>
<path d="M31.0345 17.931H33.7932V20.6897H31.0345V17.931Z" fill="#E6E7E8"/>
<path d="M25.5173 17.931H28.276V20.6897H25.5173V17.931Z" fill="#E6E7E8"/>
<path d="M31.0345 12.4137H33.7932V15.1723H31.0345V12.4137Z" fill="#E6E7E8"/>
<path d="M25.5173 12.4137H28.276V15.1723H25.5173V12.4137Z" fill="#E6E7E8"/>
<path d="M15.8622 23.4482H17.9311C17.4809 24.0436 17.2385 24.7706 17.2415 25.5172V26.2069H15.8622V23.4482Z" fill="#E6E7E8"/>
<path d="M10.3448 23.4482H13.1035V26.2069H10.3448V23.4482Z" fill="#E6E7E8"/>
<path d="M4.82764 23.4482H7.58626V26.2069H4.82764V23.4482Z" fill="#E6E7E8"/>
<path d="M15.8622 17.931H18.6208V20.6897H15.8622V17.931Z" fill="#E6E7E8"/>
<path d="M10.3448 17.931H13.1035V20.6897H10.3448V17.931Z" fill="#E6E7E8"/>
<path d="M4.82764 17.931H7.58626V20.6897H4.82764V17.931Z" fill="#E6E7E8"/>
<path d="M15.8622 12.4137H18.6208V15.1723H15.8622V12.4137Z" fill="#E6E7E8"/>
<path d="M10.3448 12.4137H13.1035V15.1723H10.3448V12.4137Z" fill="#E6E7E8"/>
<path d="M4.82764 12.4137H7.58626V15.1723H4.82764V12.4137Z" fill="#E6E7E8"/>
<path d="M15.8622 6.89648H18.6208V9.65511H15.8622V6.89648Z" fill="#E6E7E8"/>
<path d="M10.3448 6.89648H13.1035V9.65511H10.3448V6.89648Z" fill="#E6E7E8"/>
<path d="M4.82764 6.89648H7.58626V9.65511H4.82764V6.89648Z" fill="#E6E7E8"/>
<path d="M23.0691 32.007L22.0689 32.7586L20.6896 33.7931L18.3102 32.007L19.3103 31.7242V29.9724C20.163 30.4691 21.2163 30.4691 22.0689 29.9724V31.7242L23.0691 32.007Z" fill="#FFDAAA"/>
<path d="M23.4483 0V2.75862H0V0H23.4483Z" fill="#1A6FB0"/>
<path d="M22.3794 25.4415L22.069 24.8276L21.0412 25.5106C20.3623 25.9658 19.5626 26.2086 18.7449 26.2069H17.931V27.5863C17.9294 28.5723 18.4553 29.4842 19.3093 29.9768C20.1637 30.4695 21.2163 30.4678 22.069 29.9724C22.2771 29.8519 22.4694 29.7057 22.6414 29.538C23.157 29.0191 23.4469 28.3177 23.4483 27.5863V26.1931C22.9863 26.1433 22.5825 25.8591 22.3794 25.4415Z" fill="#FFDAAA"/>
<path d="M22.0689 29.9724V30.6621C21.2163 31.1588 20.1629 31.1588 19.3103 30.6621V29.9724C20.1629 30.4691 21.2163 30.4691 22.0689 29.9724Z" fill="#F2CD9D"/>
<path d="M22.069 22.3518C21.6329 22.1656 21.1638 22.0693 20.6896 22.069C19.6046 22.07 18.583 22.5808 17.931 23.4483C17.4808 24.0436 17.2383 24.7707 17.2414 25.5172V26.2069H18.7449C19.5626 26.2086 20.3623 25.9658 21.0412 25.5105L22.069 24.8276L22.3794 25.4415C22.5825 25.859 22.9862 26.1432 23.4483 26.1931C23.5028 26.2045 23.5584 26.2093 23.6139 26.2069H24.1379V25.5172C24.1349 24.1457 23.3237 22.9051 22.069 22.3518Z" fill="#3E3D42"/>
<path d="M24.8967 32.5309L23.0691 32.007L22.069 32.7586L20.6897 33.7931L18.3103 32.007L16.4827 32.5309C15.2967 32.868 14.4794 33.953 14.4828 35.1862V40H26.8966V35.1862C26.8979 33.9537 26.0817 32.87 24.8967 32.5309Z" fill="#00CCB3"/>
<path d="M1.37927 2.75867H22.0689V4.13798H1.37927V2.75867Z" fill="#3D9AE2"/>
<path d="M16.5518 35.1724H17.9311V39.9999H16.5518V35.1724Z" fill="#00B39D"/>
<path d="M23.4482 35.1724H24.8276V39.9999H23.4482V35.1724Z" fill="#00B39D"/>
<path d="M30.3448 22.7587H37.2414V24.138H30.3448V22.7587Z" fill="#DDB200"/>
<path d="M30.3448 25.5172H37.2414V26.8965H30.3448V25.5172Z" fill="#DDB200"/>
</g>
<defs>
<clipPath id="clip0_121_1667">
<rect width="40" height="40" fill="white"/>
</clipPath>
</defs>
</svg>
