<svg width="229" height="50" viewBox="0 0 229 50" fill="none" xmlns="http://www.w3.org/2000/svg">
<path d="M26.2232 14.3349C19.6575 14.3349 14.3349 19.6575 14.3349 26.2232L14.3349 39.3062C14.3349 45.2122 19.1226 50 25.0287 50C30.9347 50 35.7225 45.2122 35.7225 39.3062L35.7225 37.0204C35.7225 36.3036 36.3036 35.7225 37.0204 35.7225L39.3062 35.7225C45.2122 35.7225 50 30.9347 50 25.0287C50 19.1226 45.2122 14.3349 39.3062 14.3349L26.2232 14.3349Z" fill="#2FD3AE"/>
<path fill-rule="evenodd" clip-rule="evenodd" d="M24.9713 0C30.8774 0 35.6651 4.78778 35.6651 10.6938V29.7209C35.6651 33.0038 33.0038 35.6651 29.7209 35.6651H10.6938C4.78778 35.6651 0 30.8774 0 24.9713C0 19.0653 4.78778 14.2775 10.6938 14.2775H12.9796C13.6964 14.2775 14.2775 13.6964 14.2775 12.9796V10.6938C14.2775 4.78778 19.0653 0 24.9713 0ZM29.8738 12.4427C27.0454 9.20172 25.1518 8.03865 21.1009 7.39679C21.1009 7.39679 24.2546 4.3578 27.6949 6.59404C31.1353 8.83027 29.8738 12.4427 29.8738 12.4427Z" fill="#011D71"/>
<path d="M75.434 8.38H79.328L84.696 24H81L79.79 20.502H74.928L73.74 24H70.044L75.434 8.38ZM79.196 18.016L77.37 12.01L75.5 18.016H79.196ZM85.9703 24V12.45H96.7723V24H93.2523V15.53H89.4903V24H85.9703ZM101.8 24V15.53H98.3021V12.45H108.818V15.53H105.32V24H101.8ZM115.834 24.22C114.851 24.22 113.978 24.066 113.216 23.758C112.453 23.4353 111.8 23.0027 111.258 22.46C110.73 21.9173 110.326 21.294 110.048 20.59C109.769 19.8713 109.63 19.1233 109.63 18.346C109.63 17.2313 109.872 16.2193 110.356 15.31C110.854 14.386 111.566 13.6453 112.49 13.088C113.414 12.516 114.528 12.23 115.834 12.23C117.139 12.23 118.246 12.5087 119.156 13.066C120.08 13.6233 120.784 14.3567 121.268 15.266C121.752 16.1607 121.994 17.136 121.994 18.192C121.994 18.3973 121.979 18.6027 121.95 18.808C121.935 18.9987 121.92 19.1673 121.906 19.314H113.37C113.414 19.8273 113.553 20.26 113.788 20.612C114.037 20.964 114.352 21.2353 114.734 21.426C115.115 21.602 115.518 21.69 115.944 21.69C116.472 21.69 116.963 21.5653 117.418 21.316C117.887 21.0667 118.21 20.7293 118.386 20.304L121.378 21.14C121.084 21.7413 120.666 22.2767 120.124 22.746C119.596 23.2007 118.965 23.56 118.232 23.824C117.513 24.088 116.714 24.22 115.834 24.22ZM113.282 17.158H118.298C118.239 16.674 118.1 16.256 117.88 15.904C117.66 15.5373 117.366 15.2587 117 15.068C116.633 14.8627 116.23 14.76 115.79 14.76C115.335 14.76 114.924 14.8627 114.558 15.068C114.206 15.2587 113.92 15.5373 113.7 15.904C113.48 16.256 113.34 16.674 113.282 17.158ZM123.611 24V12.45H127.109V16.586H127.945L130.805 12.45H134.589L130.629 17.994L135.007 24H130.981L127.879 19.644H127.109V24H123.611ZM135.861 20.546C135.861 19.7833 136.074 19.116 136.499 18.544C136.924 17.972 137.511 17.5247 138.259 17.202C139.007 16.8647 139.865 16.696 140.833 16.696C141.302 16.696 141.764 16.74 142.219 16.828C142.674 16.9013 143.07 17.0113 143.407 17.158V16.652C143.407 16.0213 143.216 15.5373 142.835 15.2C142.454 14.8627 141.874 14.694 141.097 14.694C140.452 14.694 139.843 14.804 139.271 15.024C138.714 15.244 138.12 15.5593 137.489 15.97L136.433 13.726C137.196 13.2273 137.988 12.8533 138.809 12.604C139.645 12.3547 140.525 12.23 141.449 12.23C143.18 12.23 144.522 12.648 145.475 13.484C146.443 14.3053 146.927 15.5007 146.927 17.07V20.084C146.927 20.436 146.978 20.6853 147.081 20.832C147.198 20.964 147.396 21.0447 147.675 21.074V24C147.382 24.0587 147.103 24.1027 146.839 24.132C146.59 24.1613 146.37 24.176 146.179 24.176C145.519 24.176 145.013 24.044 144.661 23.78C144.324 23.516 144.111 23.1567 144.023 22.702L143.957 22.196C143.444 22.856 142.828 23.362 142.109 23.714C141.405 24.0513 140.664 24.22 139.887 24.22C139.124 24.22 138.435 24.0587 137.819 23.736C137.218 23.4133 136.741 22.9733 136.389 22.416C136.037 21.8587 135.861 21.2353 135.861 20.546ZM142.857 20.986C143.018 20.854 143.15 20.7073 143.253 20.546C143.356 20.3847 143.407 20.2307 143.407 20.084V19.05C143.114 18.9327 142.784 18.8447 142.417 18.786C142.065 18.7127 141.735 18.676 141.427 18.676C140.782 18.676 140.246 18.8227 139.821 19.116C139.396 19.3947 139.183 19.7687 139.183 20.238C139.183 20.502 139.256 20.744 139.403 20.964C139.55 21.184 139.748 21.36 139.997 21.492C140.261 21.624 140.569 21.69 140.921 21.69C141.273 21.69 141.625 21.624 141.977 21.492C142.329 21.36 142.622 21.1913 142.857 20.986ZM149.698 24V21.844H150.996V24H149.698ZM158.54 24.22C157.719 24.22 156.956 24.066 156.252 23.758C155.563 23.4353 154.961 23.0027 154.448 22.46C153.949 21.9027 153.561 21.272 153.282 20.568C153.003 19.8493 152.864 19.094 152.864 18.302C152.864 17.4807 153.003 16.718 153.282 16.014C153.561 15.2953 153.957 14.6647 154.47 14.122C154.983 13.5647 155.585 13.132 156.274 12.824C156.978 12.5013 157.741 12.34 158.562 12.34C159.383 12.34 160.139 12.5013 160.828 12.824C161.517 13.132 162.119 13.5647 162.632 14.122C163.145 14.6647 163.541 15.2953 163.82 16.014C164.099 16.718 164.238 17.4807 164.238 18.302C164.238 19.094 164.099 19.8493 163.82 20.568C163.541 21.272 163.145 21.9027 162.632 22.46C162.133 23.0027 161.532 23.4353 160.828 23.758C160.139 24.066 159.376 24.22 158.54 24.22ZM154.382 18.324C154.382 19.1747 154.565 19.952 154.932 20.656C155.313 21.3453 155.819 21.8953 156.45 22.306C157.081 22.702 157.777 22.9 158.54 22.9C159.303 22.9 159.999 22.6947 160.63 22.284C161.261 21.8733 161.767 21.316 162.148 20.612C162.529 19.8933 162.72 19.116 162.72 18.28C162.72 17.4293 162.529 16.652 162.148 15.948C161.767 15.244 161.261 14.6867 160.63 14.276C159.999 13.8653 159.303 13.66 158.54 13.66C157.777 13.66 157.081 13.8727 156.45 14.298C155.834 14.7233 155.335 15.288 154.954 15.992C154.573 16.6813 154.382 17.4587 154.382 18.324ZM166.718 24V12.538H168.214V17.466H174.77V12.538H176.266V24H174.77V18.808H168.214V24H166.718ZM178.466 24.066V22.702C178.862 22.702 179.214 22.5993 179.522 22.394C179.83 22.174 180.101 21.8073 180.336 21.294C180.585 20.7807 180.783 20.0767 180.93 19.182C181.077 18.2727 181.172 17.1213 181.216 15.728L181.348 12.538H188.784V24H187.288V13.88H182.668L182.624 15.86C182.565 17.444 182.441 18.7713 182.25 19.842C182.059 20.898 181.788 21.734 181.436 22.35C181.099 22.966 180.681 23.406 180.182 23.67C179.683 23.934 179.111 24.066 178.466 24.066ZM191.167 20.7C191.167 19.9813 191.373 19.3653 191.783 18.852C192.194 18.324 192.759 17.9207 193.477 17.642C194.211 17.3487 195.054 17.202 196.007 17.202C196.565 17.202 197.144 17.246 197.745 17.334C198.347 17.422 198.882 17.554 199.351 17.73V16.762C199.351 15.794 199.065 15.024 198.493 14.452C197.921 13.88 197.129 13.594 196.117 13.594C195.501 13.594 194.893 13.7113 194.291 13.946C193.705 14.166 193.089 14.496 192.443 14.936L191.871 13.88C192.619 13.3667 193.353 12.9853 194.071 12.736C194.79 12.472 195.523 12.34 196.271 12.34C197.679 12.34 198.794 12.7433 199.615 13.55C200.437 14.3567 200.847 15.4713 200.847 16.894V22.196C200.847 22.4013 200.891 22.5553 200.979 22.658C201.067 22.746 201.207 22.7973 201.397 22.812V24C201.236 24.0147 201.097 24.0293 200.979 24.044C200.862 24.0587 200.774 24.0587 200.715 24.044C200.349 24.0293 200.07 23.912 199.879 23.692C199.689 23.472 199.586 23.2373 199.571 22.988L199.549 22.152C199.036 22.812 198.369 23.3253 197.547 23.692C196.726 24.044 195.89 24.22 195.039 24.22C194.306 24.22 193.639 24.066 193.037 23.758C192.451 23.4353 191.989 23.01 191.651 22.482C191.329 21.9393 191.167 21.3453 191.167 20.7ZM198.845 21.58C199.007 21.3747 199.131 21.1767 199.219 20.986C199.307 20.7953 199.351 20.6267 199.351 20.48V18.808C198.853 18.6173 198.332 18.4707 197.789 18.368C197.261 18.2653 196.726 18.214 196.183 18.214C195.113 18.214 194.247 18.4267 193.587 18.852C192.927 19.2773 192.597 19.8567 192.597 20.59C192.597 21.0153 192.707 21.4187 192.927 21.8C193.147 22.1667 193.47 22.4747 193.895 22.724C194.321 22.9587 194.819 23.076 195.391 23.076C196.11 23.076 196.777 22.9367 197.393 22.658C198.024 22.3793 198.508 22.02 198.845 21.58ZM204.058 24V12.56H205.554V21.976L212.528 12.538H213.87V24H212.374V14.738L205.51 24H204.058ZM208.986 11.086C207.988 11.086 207.218 10.8513 206.676 10.382C206.133 9.91267 205.862 9.31867 205.862 8.6H206.962C206.962 9.04 207.123 9.40667 207.446 9.7C207.783 9.99333 208.296 10.14 208.986 10.14C209.66 10.14 210.152 10.0007 210.46 9.722C210.782 9.44333 210.966 9.06933 211.01 8.6H212.088C212.088 9.31867 211.816 9.91267 211.274 10.382C210.731 10.8513 209.968 11.086 208.986 11.086ZM217.12 24V12.538H218.616V17.466H225.172V12.538H226.668V24H225.172V18.808H218.616V24H217.12Z" fill="#011D71"/>
<path d="M74.7031 39.3447H72.1807L72.167 38.2852H74.457C74.8353 38.2852 75.1657 38.2214 75.4482 38.0938C75.7308 37.9661 75.9495 37.7839 76.1045 37.5469C76.264 37.3053 76.3438 37.0182 76.3438 36.6855C76.3438 36.321 76.2731 36.0247 76.1318 35.7969C75.9951 35.5645 75.7832 35.3958 75.4961 35.291C75.2135 35.1816 74.8535 35.127 74.416 35.127H72.4746V44H71.1553V34.0469H74.416C74.9264 34.0469 75.3822 34.0993 75.7832 34.2041C76.1842 34.3044 76.5238 34.4639 76.8018 34.6826C77.0843 34.8968 77.2985 35.1702 77.4443 35.5029C77.5902 35.8356 77.6631 36.2344 77.6631 36.6992C77.6631 37.1094 77.5583 37.4808 77.3486 37.8135C77.139 38.1416 76.8473 38.4105 76.4736 38.6201C76.1045 38.8298 75.6715 38.9642 75.1748 39.0234L74.7031 39.3447ZM74.6416 44H71.6611L72.4062 42.9268H74.6416C75.0609 42.9268 75.4163 42.8538 75.708 42.708C76.0042 42.5622 76.2298 42.3571 76.3848 42.0928C76.5397 41.8239 76.6172 41.5072 76.6172 41.1426C76.6172 40.7734 76.5511 40.4544 76.4189 40.1855C76.2868 39.9167 76.0794 39.7093 75.7969 39.5635C75.5143 39.4176 75.1497 39.3447 74.7031 39.3447H72.8232L72.8369 38.2852H75.4072L75.6875 38.668C76.166 38.709 76.5716 38.8457 76.9043 39.0781C77.237 39.306 77.4899 39.5977 77.6631 39.9531C77.8408 40.3086 77.9297 40.7005 77.9297 41.1289C77.9297 41.7487 77.793 42.2728 77.5195 42.7012C77.2507 43.125 76.8701 43.4486 76.3779 43.6719C75.8857 43.8906 75.307 44 74.6416 44ZM84.0479 42.7354V38.9277C84.0479 38.6361 83.9886 38.3831 83.8701 38.1689C83.7562 37.9502 83.583 37.7816 83.3506 37.6631C83.1182 37.5446 82.8311 37.4854 82.4893 37.4854C82.1702 37.4854 81.89 37.54 81.6484 37.6494C81.4115 37.7588 81.2246 37.9023 81.0879 38.0801C80.9557 38.2578 80.8896 38.4492 80.8896 38.6543H79.625C79.625 38.39 79.6934 38.1279 79.8301 37.8682C79.9668 37.6084 80.1628 37.3737 80.418 37.1641C80.6777 36.9499 80.9876 36.7812 81.3477 36.6582C81.7122 36.5306 82.1178 36.4668 82.5645 36.4668C83.1022 36.4668 83.5762 36.5579 83.9863 36.7402C84.401 36.9225 84.7246 37.1982 84.957 37.5674C85.194 37.932 85.3125 38.39 85.3125 38.9414V42.3867C85.3125 42.6328 85.333 42.8949 85.374 43.1729C85.4196 43.4508 85.4857 43.6901 85.5723 43.8906V44H84.2529C84.1891 43.8542 84.139 43.6605 84.1025 43.4189C84.0661 43.1729 84.0479 42.945 84.0479 42.7354ZM84.2666 39.5156L84.2803 40.4043H83.002C82.6419 40.4043 82.3206 40.4339 82.0381 40.4932C81.7555 40.5479 81.5186 40.6322 81.3271 40.7461C81.1357 40.86 80.9899 41.0036 80.8896 41.1768C80.7894 41.3454 80.7393 41.5436 80.7393 41.7715C80.7393 42.0039 80.7917 42.2158 80.8965 42.4072C81.0013 42.5986 81.1585 42.7513 81.3682 42.8652C81.5824 42.9746 81.8444 43.0293 82.1543 43.0293C82.5417 43.0293 82.8835 42.9473 83.1797 42.7832C83.4759 42.6191 83.7106 42.4186 83.8838 42.1816C84.0615 41.9447 84.1572 41.7145 84.1709 41.4912L84.7109 42.0996C84.679 42.291 84.5924 42.5029 84.4512 42.7354C84.3099 42.9678 84.1208 43.1911 83.8838 43.4053C83.6514 43.6149 83.3734 43.7904 83.0498 43.9316C82.7308 44.0684 82.3708 44.1367 81.9697 44.1367C81.4684 44.1367 81.0286 44.0387 80.6504 43.8428C80.2767 43.6468 79.985 43.3848 79.7754 43.0566C79.5703 42.724 79.4678 42.3525 79.4678 41.9424C79.4678 41.5459 79.5452 41.1973 79.7002 40.8965C79.8551 40.5911 80.0785 40.3382 80.3701 40.1377C80.6618 39.9326 81.0127 39.7777 81.4229 39.6729C81.833 39.568 82.291 39.5156 82.7969 39.5156H84.2666ZM87.4111 36.6035H88.6758V42.9609H91.3828V36.6035H92.6543V42.9609H95.3545V36.6035H96.6191V44H87.4111V36.6035ZM102.997 42.7354V38.9277C102.997 38.6361 102.938 38.3831 102.819 38.1689C102.705 37.9502 102.532 37.7816 102.3 37.6631C102.067 37.5446 101.78 37.4854 101.438 37.4854C101.119 37.4854 100.839 37.54 100.598 37.6494C100.361 37.7588 100.174 37.9023 100.037 38.0801C99.9049 38.2578 99.8389 38.4492 99.8389 38.6543H98.5742C98.5742 38.39 98.6426 38.1279 98.7793 37.8682C98.916 37.6084 99.112 37.3737 99.3672 37.1641C99.627 36.9499 99.9368 36.7812 100.297 36.6582C100.661 36.5306 101.067 36.4668 101.514 36.4668C102.051 36.4668 102.525 36.5579 102.936 36.7402C103.35 36.9225 103.674 37.1982 103.906 37.5674C104.143 37.932 104.262 38.39 104.262 38.9414V42.3867C104.262 42.6328 104.282 42.8949 104.323 43.1729C104.369 43.4508 104.435 43.6901 104.521 43.8906V44H103.202C103.138 43.8542 103.088 43.6605 103.052 43.4189C103.015 43.1729 102.997 42.945 102.997 42.7354ZM103.216 39.5156L103.229 40.4043H101.951C101.591 40.4043 101.27 40.4339 100.987 40.4932C100.705 40.5479 100.468 40.6322 100.276 40.7461C100.085 40.86 99.9391 41.0036 99.8389 41.1768C99.7386 41.3454 99.6885 41.5436 99.6885 41.7715C99.6885 42.0039 99.7409 42.2158 99.8457 42.4072C99.9505 42.5986 100.108 42.7513 100.317 42.8652C100.532 42.9746 100.794 43.0293 101.104 43.0293C101.491 43.0293 101.833 42.9473 102.129 42.7832C102.425 42.6191 102.66 42.4186 102.833 42.1816C103.011 41.9447 103.106 41.7145 103.12 41.4912L103.66 42.0996C103.628 42.291 103.542 42.5029 103.4 42.7354C103.259 42.9678 103.07 43.1911 102.833 43.4053C102.601 43.6149 102.323 43.7904 101.999 43.9316C101.68 44.0684 101.32 44.1367 100.919 44.1367C100.418 44.1367 99.9779 44.0387 99.5996 43.8428C99.2259 43.6468 98.9342 43.3848 98.7246 43.0566C98.5195 42.724 98.417 42.3525 98.417 41.9424C98.417 41.5459 98.4945 41.1973 98.6494 40.8965C98.8044 40.5911 99.0277 40.3382 99.3193 40.1377C99.611 39.9326 99.9619 39.7777 100.372 39.6729C100.782 39.568 101.24 39.5156 101.746 39.5156H103.216ZM109.389 40.3838V40.2266C109.389 39.6934 109.466 39.1989 109.621 38.7432C109.776 38.2829 109.999 37.8841 110.291 37.5469C110.583 37.2051 110.936 36.9408 111.351 36.7539C111.765 36.5625 112.23 36.4668 112.745 36.4668C113.265 36.4668 113.732 36.5625 114.146 36.7539C114.566 36.9408 114.921 37.2051 115.213 37.5469C115.509 37.8841 115.735 38.2829 115.89 38.7432C116.045 39.1989 116.122 39.6934 116.122 40.2266V40.3838C116.122 40.917 116.045 41.4115 115.89 41.8672C115.735 42.3229 115.509 42.7217 115.213 43.0635C114.921 43.4007 114.568 43.665 114.153 43.8564C113.743 44.0433 113.278 44.1367 112.759 44.1367C112.239 44.1367 111.772 44.0433 111.357 43.8564C110.943 43.665 110.587 43.4007 110.291 43.0635C109.999 42.7217 109.776 42.3229 109.621 41.8672C109.466 41.4115 109.389 40.917 109.389 40.3838ZM110.653 40.2266V40.3838C110.653 40.7529 110.697 41.1016 110.783 41.4297C110.87 41.7533 111 42.0404 111.173 42.291C111.351 42.5417 111.572 42.7399 111.836 42.8857C112.1 43.027 112.408 43.0977 112.759 43.0977C113.105 43.0977 113.408 43.027 113.668 42.8857C113.932 42.7399 114.151 42.5417 114.324 42.291C114.497 42.0404 114.627 41.7533 114.714 41.4297C114.805 41.1016 114.851 40.7529 114.851 40.3838V40.2266C114.851 39.862 114.805 39.5179 114.714 39.1943C114.627 38.8662 114.495 38.5768 114.317 38.3262C114.144 38.071 113.925 37.8704 113.661 37.7246C113.401 37.5788 113.096 37.5059 112.745 37.5059C112.399 37.5059 112.093 37.5788 111.829 37.7246C111.569 37.8704 111.351 38.071 111.173 38.3262C111 38.5768 110.87 38.8662 110.783 39.1943C110.697 39.5179 110.653 39.862 110.653 40.2266ZM122.726 39.8096V40.835H118.815V39.8096H122.726ZM119.082 36.6035V44H117.817V36.6035H119.082ZM123.751 36.6035V44H122.479V36.6035H123.751ZM130.73 36.6035V37.6494H127.155V36.6035H130.73ZM131.845 36.6035V44H130.58V36.6035H131.845ZM126.848 36.6035H128.119L127.928 40.1719C127.896 40.7233 127.843 41.2109 127.771 41.6348C127.702 42.054 127.606 42.4141 127.483 42.7148C127.365 43.0156 127.215 43.2617 127.032 43.4531C126.854 43.64 126.64 43.779 126.39 43.8701C126.139 43.9567 125.85 44 125.521 44H125.125V42.8857L125.398 42.8652C125.594 42.8516 125.761 42.806 125.897 42.7285C126.039 42.651 126.157 42.5371 126.253 42.3867C126.349 42.2318 126.426 42.0335 126.485 41.792C126.549 41.5505 126.597 41.2633 126.629 40.9307C126.665 40.598 126.693 40.2106 126.711 39.7686L126.848 36.6035ZM138.243 42.7354V38.9277C138.243 38.6361 138.184 38.3831 138.065 38.1689C137.951 37.9502 137.778 37.7816 137.546 37.6631C137.313 37.5446 137.026 37.4854 136.685 37.4854C136.366 37.4854 136.085 37.54 135.844 37.6494C135.607 37.7588 135.42 37.9023 135.283 38.0801C135.151 38.2578 135.085 38.4492 135.085 38.6543H133.82C133.82 38.39 133.889 38.1279 134.025 37.8682C134.162 37.6084 134.358 37.3737 134.613 37.1641C134.873 36.9499 135.183 36.7812 135.543 36.6582C135.908 36.5306 136.313 36.4668 136.76 36.4668C137.298 36.4668 137.771 36.5579 138.182 36.7402C138.596 36.9225 138.92 37.1982 139.152 37.5674C139.389 37.932 139.508 38.39 139.508 38.9414V42.3867C139.508 42.6328 139.528 42.8949 139.569 43.1729C139.615 43.4508 139.681 43.6901 139.768 43.8906V44H138.448C138.384 43.8542 138.334 43.6605 138.298 43.4189C138.261 43.1729 138.243 42.945 138.243 42.7354ZM138.462 39.5156L138.476 40.4043H137.197C136.837 40.4043 136.516 40.4339 136.233 40.4932C135.951 40.5479 135.714 40.6322 135.522 40.7461C135.331 40.86 135.185 41.0036 135.085 41.1768C134.985 41.3454 134.935 41.5436 134.935 41.7715C134.935 42.0039 134.987 42.2158 135.092 42.4072C135.197 42.5986 135.354 42.7513 135.563 42.8652C135.778 42.9746 136.04 43.0293 136.35 43.0293C136.737 43.0293 137.079 42.9473 137.375 42.7832C137.671 42.6191 137.906 42.4186 138.079 42.1816C138.257 41.9447 138.353 41.7145 138.366 41.4912L138.906 42.0996C138.874 42.291 138.788 42.5029 138.646 42.7354C138.505 42.9678 138.316 43.1911 138.079 43.4053C137.847 43.6149 137.569 43.7904 137.245 43.9316C136.926 44.0684 136.566 44.1367 136.165 44.1367C135.664 44.1367 135.224 44.0387 134.846 43.8428C134.472 43.6468 134.18 43.3848 133.971 43.0566C133.766 42.724 133.663 42.3525 133.663 41.9424C133.663 41.5459 133.741 41.1973 133.896 40.8965C134.05 40.5911 134.274 40.3382 134.565 40.1377C134.857 39.9326 135.208 39.7777 135.618 39.6729C136.028 39.568 136.486 39.5156 136.992 39.5156H138.462ZM142.864 41.9971L146.275 36.6035H147.547V44H146.275V38.6064L142.864 44H141.606V36.6035H142.864V41.9971ZM145.585 33.9238H146.61C146.61 34.2793 146.528 34.596 146.364 34.874C146.2 35.1475 145.965 35.3617 145.66 35.5166C145.355 35.6715 144.993 35.749 144.573 35.749C143.94 35.749 143.438 35.5804 143.069 35.2432C142.705 34.9014 142.522 34.4616 142.522 33.9238H143.548C143.548 34.1927 143.625 34.4297 143.78 34.6348C143.935 34.8398 144.2 34.9424 144.573 34.9424C144.938 34.9424 145.198 34.8398 145.353 34.6348C145.507 34.4297 145.585 34.1927 145.585 33.9238ZM154.595 39.8096V40.835H150.685V39.8096H154.595ZM150.951 36.6035V44H149.687V36.6035H150.951ZM155.62 36.6035V44H154.349V36.6035H155.62ZM165.491 42.7354V38.9277C165.491 38.6361 165.432 38.3831 165.313 38.1689C165.2 37.9502 165.026 37.7816 164.794 37.6631C164.562 37.5446 164.274 37.4854 163.933 37.4854C163.614 37.4854 163.333 37.54 163.092 37.6494C162.855 37.7588 162.668 37.9023 162.531 38.0801C162.399 38.2578 162.333 38.4492 162.333 38.6543H161.068C161.068 38.39 161.137 38.1279 161.273 37.8682C161.41 37.6084 161.606 37.3737 161.861 37.1641C162.121 36.9499 162.431 36.7812 162.791 36.6582C163.156 36.5306 163.561 36.4668 164.008 36.4668C164.546 36.4668 165.02 36.5579 165.43 36.7402C165.844 36.9225 166.168 37.1982 166.4 37.5674C166.637 37.932 166.756 38.39 166.756 38.9414V42.3867C166.756 42.6328 166.776 42.8949 166.817 43.1729C166.863 43.4508 166.929 43.6901 167.016 43.8906V44H165.696C165.632 43.8542 165.582 43.6605 165.546 43.4189C165.509 43.1729 165.491 42.945 165.491 42.7354ZM165.71 39.5156L165.724 40.4043H164.445C164.085 40.4043 163.764 40.4339 163.481 40.4932C163.199 40.5479 162.962 40.6322 162.771 40.7461C162.579 40.86 162.433 41.0036 162.333 41.1768C162.233 41.3454 162.183 41.5436 162.183 41.7715C162.183 42.0039 162.235 42.2158 162.34 42.4072C162.445 42.5986 162.602 42.7513 162.812 42.8652C163.026 42.9746 163.288 43.0293 163.598 43.0293C163.985 43.0293 164.327 42.9473 164.623 42.7832C164.919 42.6191 165.154 42.4186 165.327 42.1816C165.505 41.9447 165.601 41.7145 165.614 41.4912L166.154 42.0996C166.122 42.291 166.036 42.5029 165.895 42.7354C165.753 42.9678 165.564 43.1911 165.327 43.4053C165.095 43.6149 164.817 43.7904 164.493 43.9316C164.174 44.0684 163.814 44.1367 163.413 44.1367C162.912 44.1367 162.472 44.0387 162.094 43.8428C161.72 43.6468 161.428 43.3848 161.219 43.0566C161.014 42.724 160.911 42.3525 160.911 41.9424C160.911 41.5459 160.989 41.1973 161.144 40.8965C161.299 40.5911 161.522 40.3382 161.813 40.1377C162.105 39.9326 162.456 39.7777 162.866 39.6729C163.276 39.568 163.734 39.5156 164.24 39.5156H165.71ZM173.674 36.6035V37.6494H169.935V36.6035H173.674ZM170.119 36.6035V44H168.854V36.6035H170.119ZM174.795 36.6035V44H173.523V36.6035H174.795ZM179.84 36.6035V44H178.568V36.6035H179.84ZM182.321 36.6035V37.6289H176.135V36.6035H182.321ZM186.088 44.1367C185.573 44.1367 185.106 44.0501 184.687 43.877C184.272 43.6992 183.914 43.4508 183.613 43.1318C183.317 42.8128 183.089 42.4346 182.93 41.9971C182.77 41.5596 182.69 41.0811 182.69 40.5615V40.2744C182.69 39.6729 182.779 39.1374 182.957 38.668C183.135 38.194 183.376 37.793 183.682 37.4648C183.987 37.1367 184.333 36.8883 184.721 36.7197C185.108 36.5511 185.509 36.4668 185.924 36.4668C186.452 36.4668 186.908 36.5579 187.291 36.7402C187.678 36.9225 187.995 37.1777 188.241 37.5059C188.487 37.8294 188.67 38.2122 188.788 38.6543C188.907 39.0918 188.966 39.5703 188.966 40.0898V40.6572H183.442V39.625H187.701V39.5293C187.683 39.2012 187.615 38.8822 187.496 38.5723C187.382 38.2624 187.2 38.0072 186.949 37.8066C186.699 37.6061 186.357 37.5059 185.924 37.5059C185.637 37.5059 185.372 37.5674 185.131 37.6904C184.889 37.8089 184.682 37.9867 184.509 38.2236C184.336 38.4606 184.201 38.75 184.105 39.0918C184.01 39.4336 183.962 39.8278 183.962 40.2744V40.5615C183.962 40.9124 184.01 41.2428 184.105 41.5527C184.206 41.8581 184.349 42.127 184.536 42.3594C184.728 42.5918 184.958 42.7741 185.227 42.9062C185.5 43.0384 185.81 43.1045 186.156 43.1045C186.603 43.1045 186.981 43.0133 187.291 42.8311C187.601 42.6488 187.872 42.4049 188.104 42.0996L188.87 42.708C188.711 42.9495 188.508 43.1797 188.262 43.3984C188.016 43.6172 187.713 43.7949 187.353 43.9316C186.997 44.0684 186.576 44.1367 186.088 44.1367ZM191.816 36.6035V44H190.552V36.6035H191.816ZM196.67 36.6035L193.163 40.8418H191.393L191.201 39.7344H192.65L195.132 36.6035H196.67ZM195.31 44L192.589 40.6504L193.402 39.7344L196.916 44H195.31ZM202.378 42.7354V38.9277C202.378 38.6361 202.319 38.3831 202.2 38.1689C202.086 37.9502 201.913 37.7816 201.681 37.6631C201.448 37.5446 201.161 37.4854 200.819 37.4854C200.5 37.4854 200.22 37.54 199.979 37.6494C199.742 37.7588 199.555 37.9023 199.418 38.0801C199.286 38.2578 199.22 38.4492 199.22 38.6543H197.955C197.955 38.39 198.023 38.1279 198.16 37.8682C198.297 37.6084 198.493 37.3737 198.748 37.1641C199.008 36.9499 199.318 36.7812 199.678 36.6582C200.042 36.5306 200.448 36.4668 200.895 36.4668C201.432 36.4668 201.906 36.5579 202.316 36.7402C202.731 36.9225 203.055 37.1982 203.287 37.5674C203.524 37.932 203.643 38.39 203.643 38.9414V42.3867C203.643 42.6328 203.663 42.8949 203.704 43.1729C203.75 43.4508 203.816 43.6901 203.902 43.8906V44H202.583C202.519 43.8542 202.469 43.6605 202.433 43.4189C202.396 43.1729 202.378 42.945 202.378 42.7354ZM202.597 39.5156L202.61 40.4043H201.332C200.972 40.4043 200.651 40.4339 200.368 40.4932C200.086 40.5479 199.849 40.6322 199.657 40.7461C199.466 40.86 199.32 41.0036 199.22 41.1768C199.119 41.3454 199.069 41.5436 199.069 41.7715C199.069 42.0039 199.122 42.2158 199.227 42.4072C199.331 42.5986 199.489 42.7513 199.698 42.8652C199.912 42.9746 200.174 43.0293 200.484 43.0293C200.872 43.0293 201.214 42.9473 201.51 42.7832C201.806 42.6191 202.041 42.4186 202.214 42.1816C202.392 41.9447 202.487 41.7145 202.501 41.4912L203.041 42.0996C203.009 42.291 202.923 42.5029 202.781 42.7354C202.64 42.9678 202.451 43.1911 202.214 43.4053C201.981 43.6149 201.703 43.7904 201.38 43.9316C201.061 44.0684 200.701 44.1367 200.3 44.1367C199.799 44.1367 199.359 44.0387 198.98 43.8428C198.607 43.6468 198.315 43.3848 198.105 43.0566C197.9 42.724 197.798 42.3525 197.798 41.9424C197.798 41.5459 197.875 41.1973 198.03 40.8965C198.185 40.5911 198.409 40.3382 198.7 40.1377C198.992 39.9326 199.343 39.7777 199.753 39.6729C200.163 39.568 200.621 39.5156 201.127 39.5156H202.597Z" fill="#7894A4"/>
</svg>
