<svg width="41" height="40" viewBox="0 0 41 40" fill="none" xmlns="http://www.w3.org/2000/svg">
<path d="M19.092 10.599H9.71704C9.39337 10.599 9.1311 10.8613 9.1311 11.1849C9.1311 11.5085 9.39337 11.7709 9.71704 11.7709H19.092C19.4157 11.7709 19.678 11.5085 19.678 11.1849C19.678 10.8613 19.4157 10.599 19.092 10.599Z" fill="#FC647D"/>
<path d="M12.1689 25.6818C10.8205 25.4356 9.53238 24.9695 8.34004 24.2966C8.11816 24.1713 7.84074 24.2038 7.65379 24.377C6.60395 25.3498 5.2373 25.8855 3.80566 25.8855C3.54207 25.8855 3.28098 25.8676 3.02332 25.832C4.15738 25.041 5.03902 23.9155 5.52746 22.6005C5.60496 22.3918 5.55746 22.1571 5.40488 21.995C3.24004 19.6945 2.04785 16.6879 2.04785 13.5287C2.04785 6.71508 7.59106 1.17188 14.4046 1.17188C20.3761 1.17188 25.4877 5.42836 26.5592 11.2929C26.6173 11.6112 26.9229 11.8221 27.2409 11.764C27.5593 11.7058 27.7701 11.4006 27.712 11.0823C26.5387 4.66078 20.9422 0 14.4046 0C6.94496 0 0.875977 6.06891 0.875977 13.5287C0.875977 16.8611 2.0877 20.0387 4.29582 22.5188C3.70176 23.8557 2.60504 24.9216 1.24199 25.4734C1.02082 25.563 0.875977 25.7779 0.875977 26.0166C0.875977 26.2553 1.02082 26.4702 1.24207 26.5597C2.05762 26.8898 2.92012 27.0573 3.80566 27.0573C5.39121 27.0573 6.91074 26.5128 8.12949 25.5159C9.33207 26.1468 10.6181 26.5899 11.9585 26.8345C12.2764 26.8927 12.5819 26.6817 12.6401 26.3634C12.6982 26.0451 12.4872 25.7398 12.1689 25.6818V25.6818Z" fill="#FC647D"/>
<path d="M9.71704 15.2865C9.39337 15.2865 9.1311 15.5488 9.1311 15.8724C9.1311 16.196 9.39337 16.4584 9.71704 16.4584H16.343C16.6666 16.4584 16.9289 16.196 16.9289 15.8724C16.9289 15.5488 16.6666 15.2865 16.343 15.2865H9.71704Z" fill="#FC647D"/>
<path d="M19.678 13.5287C19.678 13.2051 19.4157 12.9427 19.092 12.9427H9.71704C9.39337 12.9427 9.1311 13.2051 9.1311 13.5287C9.1311 13.8523 9.39337 14.1146 9.71704 14.1146H19.092C19.4157 14.1146 19.678 13.8523 19.678 13.5287Z" fill="#FC647D"/>
<path d="M30.2769 20.6627C29.1972 20.6627 28.1757 21.0243 27.3472 21.691C26.5187 21.0244 25.4973 20.6627 24.4175 20.6627C21.8328 20.6627 19.73 22.7655 19.73 25.3502C19.73 27.7809 21.0164 30.1694 23.45 32.2572C25.2483 33.7999 27.0251 34.6356 27.0998 34.6704C27.1782 34.7069 27.2627 34.7252 27.3472 34.7252C27.4316 34.7252 27.5162 34.7069 27.5946 34.6704C27.6693 34.6356 29.446 33.7999 31.2444 32.2572C33.678 30.1694 34.9644 27.7809 34.9644 25.3502C34.9644 22.7655 32.8616 20.6627 30.2769 20.6627V20.6627ZM27.3472 33.4834C26.1355 32.851 20.9019 29.8571 20.9019 25.3502C20.9019 23.4116 22.479 21.8345 24.4175 21.8345C25.3696 21.8345 26.2614 22.2097 26.9287 22.8909C27.0388 23.0034 27.1897 23.0668 27.3472 23.0668C27.5047 23.0668 27.6555 23.0034 27.7657 22.8909C28.433 22.2098 29.3248 21.8346 30.2769 21.8346C32.2154 21.8346 33.7925 23.4117 33.7925 25.3502C33.7925 29.8574 28.5581 32.8515 27.3472 33.4834V33.4834Z" fill="#FC647D"/>
<path d="M40.51 38.4162C39.1471 37.8644 38.0503 36.7984 37.4561 35.4616C39.6644 32.9814 40.8761 29.8038 40.8761 26.4713C40.8761 19.0116 34.8071 12.9427 27.3474 12.9427C19.8878 12.9427 13.8188 19.0116 13.8188 26.4713C13.8188 33.931 19.8878 40 27.3474 40C29.5354 40 31.6959 39.4681 33.6225 38.4586C34.8413 39.4555 36.3609 40 37.9464 40C38.832 40 39.6946 39.8326 40.51 39.5023C40.7313 39.4128 40.8761 39.198 40.8761 38.9592C40.8761 38.7205 40.7313 38.5057 40.51 38.4162ZM37.9464 38.8281C36.5149 38.8281 35.1482 38.2924 34.0982 37.3197C33.9872 37.2168 33.8442 37.1635 33.6999 37.1635C33.6013 37.1635 33.5021 37.1884 33.412 37.2392C31.5706 38.2787 29.4735 38.8281 27.3474 38.8281C20.5339 38.8281 14.9907 33.2849 14.9907 26.4713C14.9907 19.6577 20.5339 14.1145 27.3474 14.1145C34.161 14.1146 39.7042 19.6578 39.7042 26.4713C39.7042 29.6305 38.512 32.6373 36.3471 34.9376C36.1946 35.0998 36.147 35.3345 36.2246 35.5431C36.7131 36.8582 37.5947 37.9837 38.7288 38.7746C38.4711 38.8102 38.21 38.8281 37.9464 38.8281V38.8281Z" fill="#FC647D"/>
</svg>
