<svg width="43" height="40" viewBox="0 0 43 40" fill="none" xmlns="http://www.w3.org/2000/svg">
<path d="M40.368 17.2355H38.2005C38.077 16.7892 37.8114 16.3952 37.4438 16.113C37.0762 15.8308 36.6265 15.6759 36.1629 15.6715H33.8491V10.0217C33.8517 9.91606 33.8261 9.81158 33.775 9.71902C33.7238 9.62647 33.6489 9.54916 33.558 9.49504L17.2358 0.0815158C17.1438 0.0281246 17.0393 0 16.9329 0C16.8265 0 16.722 0.0281246 16.63 0.0815158L0.302818 9.49504C0.210434 9.54851 0.1338 9.62536 0.0806366 9.71783C0.0274738 9.8103 -0.000338458 9.91512 3.10858e-06 10.0217V28.8489C5.82474e-06 28.9556 0.0281518 29.0605 0.0816122 29.153C0.135073 29.2454 0.211964 29.3222 0.304558 29.3756L16.6334 38.7891C16.726 38.8425 16.831 38.8706 16.938 38.8706C17.0476 38.8707 17.1555 38.8426 17.2512 38.7891L25.8437 33.8403V37.4178C25.8428 37.7584 25.9096 38.0958 26.0401 38.4104C26.1707 38.7251 26.3625 39.0108 26.6044 39.2509C26.8463 39.4911 27.1335 39.6809 27.4494 39.8095C27.7653 39.938 28.1036 40.0028 28.4447 39.9999H40.368C40.71 40.0031 41.0492 39.9387 41.3662 39.8104C41.6831 39.6822 41.9715 39.4926 42.2148 39.2526C42.4581 39.0126 42.6515 38.727 42.7838 38.4121C42.9161 38.0972 42.9848 37.7593 42.9858 37.4178V19.8579C42.9854 19.164 42.7097 18.4985 42.2191 18.007C41.7285 17.5155 41.0629 17.2381 40.368 17.2355ZM36.1845 16.8879C36.419 16.8879 36.6439 16.9809 36.8097 17.1465C36.9755 17.3121 37.0687 17.5366 37.0687 17.7708V17.8297C37.0687 18.0638 36.9755 18.2884 36.8097 18.454C36.6439 18.6195 36.419 18.7125 36.1845 18.7125H32.6449C32.4104 18.7125 32.1855 18.6195 32.0197 18.454C31.8539 18.2884 31.7607 18.0638 31.7607 17.8297V17.7708C31.7607 17.5366 31.8539 17.3121 32.0197 17.1465C32.1855 16.9809 32.4104 16.8879 32.6449 16.8879H36.1845ZM16.938 1.31053L23.7229 5.22202L8.61334 13.9326L1.82846 10.0211L16.938 1.31053ZM16.359 37.2089L1.21822 28.4977V11.0739L16.359 19.7851V37.2089ZM16.938 18.7317L9.83156 14.6348L24.9411 5.92433L32.0479 10.0211L16.938 18.7317ZM25.8437 19.8579V32.4358L17.5772 37.2089V19.7851L32.6309 11.0739V15.6715H32.6498C32.1861 15.6758 31.7365 15.8308 31.3688 16.113C31.0012 16.3952 30.7356 16.7892 30.6121 17.2355H28.4447C27.7515 17.2388 27.088 17.517 26.6002 18.0088C26.1125 18.5006 25.8403 19.1657 25.8437 19.8579ZM41.7675 37.4178C41.7667 37.5996 41.7297 37.7794 41.6587 37.9468C41.5877 38.1142 41.484 38.2658 41.3538 38.3929C41.2236 38.52 41.0694 38.6199 40.9002 38.687C40.7309 38.754 40.55 38.7868 40.368 38.7835H28.4447C28.2635 38.7865 28.0836 38.7534 27.9154 38.686C27.7472 38.6187 27.5943 38.5184 27.4654 38.3912C27.3366 38.264 27.2346 38.1123 27.1653 37.9452C27.096 37.778 27.0608 37.5987 27.0619 37.4178V19.8579C27.0601 19.6749 27.0944 19.4933 27.1629 19.3235C27.2314 19.1537 27.3328 18.9991 27.4613 18.8685C27.5897 18.738 27.7427 18.6339 27.9114 18.5624C28.0801 18.4909 28.2614 18.4534 28.4447 18.4519H30.6359C30.7665 18.8824 31.0334 19.259 31.3965 19.5253C31.7595 19.7916 32.1993 19.9333 32.6498 19.929H36.1629C36.6133 19.9333 37.0531 19.7917 37.4162 19.5254C37.7792 19.259 38.0461 18.8824 38.1767 18.4519H40.368C40.7399 18.4542 41.0958 18.6034 41.358 18.8668C41.6203 19.1302 41.7675 19.4865 41.7675 19.8579V37.4178Z" fill="#6ED44C"/>
<path d="M29.1457 26.0112H29.7833C29.9448 26.0112 30.0998 25.9471 30.214 25.833C30.3282 25.7189 30.3924 25.5642 30.3924 25.4029C30.3924 25.2416 30.3282 25.0869 30.214 24.9728C30.0998 24.8588 29.9448 24.7947 29.7833 24.7947H29.7593V23.1438H31.4393C31.4775 23.266 31.5549 23.3724 31.6595 23.4466C31.7641 23.5208 31.8901 23.5587 32.0184 23.5545C32.1801 23.5549 32.3354 23.4913 32.4502 23.3775C32.5651 23.2637 32.63 23.1092 32.6308 22.9476V22.5384C32.6294 22.3761 32.564 22.2209 32.4487 22.1065C32.3334 21.992 32.1776 21.9277 32.0151 21.9273H29.1457C29.0658 21.9277 28.9868 21.9438 28.9131 21.9748C28.8394 22.0057 28.7726 22.0509 28.7165 22.1076C28.6603 22.1644 28.6159 22.2316 28.5858 22.3056C28.5557 22.3795 28.5405 22.4586 28.541 22.5384V25.4036C28.5405 25.4832 28.5558 25.5621 28.586 25.6358C28.6162 25.7095 28.6606 25.7765 28.7168 25.833C28.773 25.8894 28.8398 25.9342 28.9135 25.9648C28.9871 25.9954 29.066 26.0111 29.1457 26.0112Z" fill="#6ED44C"/>
<path d="M29.1501 31.5717H32.0216C32.1832 31.5717 32.3381 31.5076 32.4523 31.3935C32.5666 31.2795 32.6307 31.1248 32.6307 30.9635V28.0962C32.6307 27.9349 32.5666 27.7802 32.4523 27.6661C32.3381 27.5521 32.1832 27.488 32.0216 27.488H29.1501C28.9886 27.488 28.8337 27.5521 28.7194 27.6661C28.6052 27.7802 28.541 27.9349 28.541 28.0962V30.9635C28.541 31.1248 28.6052 31.2795 28.7194 31.3935C28.8337 31.5076 28.9886 31.5717 29.1501 31.5717ZM29.7592 28.7044H31.4125V30.3553H29.7592V28.7044Z" fill="#6ED44C"/>
<path d="M29.7834 35.916H29.7593V34.2651H31.4064C31.4096 34.425 31.4754 34.5774 31.5897 34.6895C31.704 34.8015 31.8578 34.8644 32.018 34.8645C32.1782 34.8647 32.3321 34.8021 32.4467 34.6903C32.5612 34.5785 32.6273 34.4263 32.6308 34.2663V33.6802C32.6302 33.5158 32.5656 33.358 32.4508 33.2402C32.3359 33.1224 32.1797 33.0537 32.0151 33.0486H29.1457C28.9823 33.0541 28.8275 33.1233 28.7144 33.2414C28.6014 33.3594 28.5392 33.5169 28.5411 33.6802V36.5454C28.541 36.624 28.5567 36.7017 28.5873 36.7741C28.6178 36.8464 28.6626 36.9119 28.719 36.9667C28.7754 37.0214 28.8422 37.0643 28.9155 37.0928C28.9888 37.1212 29.0671 37.1347 29.1457 37.1325H29.7834C29.9449 37.1325 30.0999 37.0684 30.2141 36.9543C30.3283 36.8402 30.3925 36.6855 30.3925 36.5242C30.3925 36.3629 30.3283 36.2082 30.2141 36.0941C30.0999 35.9801 29.9449 35.916 29.7834 35.916Z" fill="#6ED44C"/>
<path d="M33.4176 22.6738L31.6338 24.4551L31.0911 23.9131C31.0346 23.8567 30.9674 23.8118 30.8935 23.7813C30.8196 23.7507 30.7404 23.735 30.6604 23.735C30.5804 23.735 30.5012 23.7507 30.4273 23.7813C30.3534 23.8118 30.2862 23.8567 30.2297 23.9131C30.1731 23.9696 30.1282 24.0367 30.0976 24.1105C30.067 24.1843 30.0513 24.2634 30.0513 24.3432C30.0513 24.4231 30.067 24.5022 30.0976 24.576C30.1282 24.6498 30.1731 24.7169 30.2297 24.7734L31.2031 25.7453C31.2597 25.8018 31.3268 25.8466 31.4007 25.8772C31.4746 25.9077 31.5539 25.9235 31.6339 25.9235C31.7138 25.9235 31.7931 25.9077 31.867 25.8772C31.9409 25.8466 32.008 25.8018 32.0646 25.7453L34.2793 23.5338C34.3935 23.4197 34.4577 23.265 34.4577 23.1037C34.4577 22.9423 34.3935 22.7876 34.2793 22.6735C34.1651 22.5595 34.0101 22.4954 33.8486 22.4954C33.687 22.4954 33.5321 22.5595 33.4179 22.6735L33.4176 22.6738Z" fill="#6ED44C"/>
<path d="M33.4176 33.9038L31.6338 35.685L31.0911 35.143C31.0346 35.0866 30.9674 35.0418 30.8935 35.0112C30.8196 34.9806 30.7404 34.9649 30.6604 34.9649C30.5804 34.9649 30.5012 34.9806 30.4273 35.0112C30.3534 35.0418 30.2862 35.0866 30.2297 35.143C30.1731 35.1995 30.1282 35.2666 30.0976 35.3404C30.067 35.4142 30.0513 35.4933 30.0513 35.5731C30.0513 35.653 30.067 35.7321 30.0976 35.8059C30.1282 35.8797 30.1731 35.9467 30.2297 36.0032L31.2031 36.9751C31.2597 37.0316 31.3268 37.0764 31.4007 37.107C31.4746 37.1376 31.5539 37.1533 31.6339 37.1533C31.7138 37.1533 31.7931 37.1376 31.867 37.107C31.9409 37.0764 32.008 37.0316 32.0646 36.9751L34.2793 34.7637C34.3935 34.6496 34.4577 34.4949 34.4577 34.3336C34.4577 34.1723 34.3935 34.0176 34.2793 33.9035C34.1651 33.7895 34.0101 33.7254 33.8486 33.7254C33.687 33.7254 33.5321 33.7895 33.4179 33.9035L33.4176 33.9038Z" fill="#6ED44C"/>
<path d="M39.6667 23.4043H35.8409C35.6794 23.4043 35.5244 23.4684 35.4102 23.5824C35.296 23.6965 35.2318 23.8512 35.2318 24.0126C35.2318 24.1739 35.296 24.3286 35.4102 24.4427C35.5244 24.5568 35.6794 24.6208 35.8409 24.6208H39.6667C39.8282 24.6208 39.9831 24.5568 40.0974 24.4427C40.2116 24.3286 40.2758 24.1739 40.2758 24.0126C40.2758 23.8512 40.2116 23.6965 40.0974 23.5824C39.9831 23.4684 39.8282 23.4043 39.6667 23.4043Z" fill="#6ED44C"/>
<path d="M39.6667 28.9651H35.8409C35.6794 28.9651 35.5244 29.0292 35.4102 29.1432C35.296 29.2572 35.2318 29.4119 35.2318 29.5732C35.2318 29.7345 35.296 29.8892 35.4102 30.0032C35.5244 30.1172 35.6794 30.1813 35.8409 30.1813H39.6667C39.8282 30.1813 39.9831 30.1172 40.0974 30.0032C40.2116 29.8892 40.2758 29.7345 40.2758 29.5732C40.2758 29.4119 40.2116 29.2572 40.0974 29.1432C39.9831 29.0292 39.8282 28.9651 39.6667 28.9651Z" fill="#6ED44C"/>
<path d="M39.6667 34.5259H35.8409C35.6794 34.5259 35.5244 34.59 35.4102 34.7041C35.296 34.8181 35.2318 34.9728 35.2318 35.1341C35.2318 35.2954 35.296 35.4501 35.4102 35.5642C35.5244 35.6783 35.6794 35.7423 35.8409 35.7423H39.6667C39.8282 35.7423 39.9831 35.6783 40.0974 35.5642C40.2116 35.4501 40.2758 35.2954 40.2758 35.1341C40.2758 34.9728 40.2116 34.8181 40.0974 34.7041C39.9831 34.59 39.8282 34.5259 39.6667 34.5259Z" fill="#6ED44C"/>
</svg>
