<svg width="14" height="13" viewBox="0 0 14 13" fill="none" xmlns="http://www.w3.org/2000/svg">
<path d="M12.7375 4.78L9.10749 4.465L7.68999 1.1275C7.43499 0.52 6.56499 0.52 6.30999 1.1275L4.89249 4.4725L1.26999 4.78C0.609994 4.8325 0.339993 5.6575 0.842493 6.0925L3.59499 8.4775L2.76999 12.0175C2.61999 12.6625 3.31749 13.1725 3.88749 12.8275L6.99999 10.9525L10.1125 12.835C10.6825 13.18 11.38 12.67 11.23 12.025L10.405 8.4775L13.1575 6.0925C13.66 5.6575 13.3975 4.8325 12.7375 4.78V4.78ZM6.99999 9.55L4.17999 11.2525L4.92999 8.0425L2.43999 5.8825L5.72499 5.5975L6.99999 2.575L8.28249 5.605L11.5675 5.89L9.07749 8.05L9.82749 11.26L6.99999 9.55Z" fill="#F2C94C"/>
</svg>
