<svg width="14" height="9" viewBox="0 0 14 9" fill="none" xmlns="http://www.w3.org/2000/svg">
<path d="M13.6288 7.69706C13.6288 7.64517 13.5769 7.64518 13.5769 7.59329C13.3694 7.17817 12.9024 6.65928 12.2797 6.0885C11.9684 5.82905 11.8127 5.62149 11.7089 5.51771C11.5532 5.31016 11.5533 5.15449 11.6051 4.94694C11.657 4.79127 11.8646 4.53182 12.2278 4.06481C12.4354 3.80536 12.5391 3.6497 12.6948 3.49403C13.4731 2.45625 13.8364 1.78168 13.7326 1.47034L13.6807 1.41846C13.6288 1.36657 13.5769 1.31468 13.4731 1.31468C13.3694 1.26279 13.2137 1.26279 13.058 1.31468H11.0862C11.0344 1.31468 11.0343 1.31468 10.9306 1.31468C10.8787 1.31468 10.8268 1.31468 10.8268 1.31468H10.7749H10.723L10.6711 1.36657C10.6192 1.41846 10.6192 1.41846 10.6192 1.47034C10.4117 2.04113 10.1522 2.50813 9.89278 3.02702C9.73712 3.28647 9.58145 3.54592 9.42578 3.75348C9.27011 3.96104 9.16633 4.1167 9.06255 4.22048C8.95877 4.32426 8.85499 4.37615 8.8031 4.47993C8.75121 4.53182 8.64744 4.58371 8.64744 4.53182C8.59555 4.53182 8.54366 4.53182 8.54366 4.47993C8.49177 4.42804 8.43989 4.37615 8.388 4.32426C8.33611 4.27237 8.3361 4.16859 8.28421 4.06481C8.28421 3.96103 8.28421 3.85725 8.28421 3.80536C8.28421 3.75347 8.28421 3.59781 8.28421 3.49403C8.28421 3.33837 8.28421 3.23458 8.28421 3.18269C8.28421 3.02703 8.28421 2.81947 8.28421 2.61192C8.28421 2.40436 8.28421 2.24869 8.28421 2.14491C8.28421 2.04113 8.28421 1.88546 8.28421 1.78168C8.28421 1.62602 8.28421 1.52223 8.28421 1.47034C8.28421 1.41846 8.23233 1.31468 8.23233 1.26279C8.18045 1.2109 8.12855 1.15901 8.07666 1.10712C8.02477 1.05523 7.92099 1.05523 7.8691 1.00334C7.60966 0.951454 7.29833 0.899567 6.9351 0.899567C6.10487 0.899567 5.53409 0.951458 5.32653 1.05524C5.22275 1.10713 5.11897 1.15901 5.06708 1.26279C4.9633 1.36657 4.9633 1.41846 5.01519 1.41846C5.27464 1.47035 5.4822 1.57412 5.58598 1.72979L5.63787 1.83358C5.68976 1.88547 5.68975 1.98924 5.74164 2.14491C5.79353 2.30058 5.79353 2.45624 5.79353 2.6638C5.79353 2.97514 5.79353 3.28648 5.79353 3.49403C5.79353 3.75348 5.74164 3.90914 5.74164 4.06481C5.74164 4.22048 5.68976 4.32426 5.63787 4.37615C5.58598 4.47993 5.58597 4.53182 5.53408 4.53182C5.53408 4.53182 5.53408 4.5837 5.48219 4.5837C5.4303 4.5837 5.37842 4.6356 5.27464 4.6356C5.22275 4.6356 5.11897 4.58371 5.06708 4.53182C4.9633 4.47993 4.85953 4.37615 4.80764 4.27237C4.70386 4.16859 4.60008 4.01292 4.4963 3.80536C4.39252 3.59781 4.23684 3.39025 4.13306 3.07892L4.0293 2.87136C3.97741 2.76758 3.87363 2.56002 3.76985 2.30058C3.66607 2.04113 3.56229 1.83358 3.45851 1.57413C3.40662 1.47035 3.35474 1.41846 3.30285 1.36657H3.25096C3.25096 1.36657 3.19906 1.31468 3.14717 1.31468C3.09528 1.31468 3.0434 1.26279 2.99151 1.26279H1.12349C0.915933 1.26279 0.812156 1.31468 0.760267 1.36657L0.708374 1.41846C0.708374 1.41846 0.708374 1.47035 0.708374 1.52224C0.708374 1.57413 0.708377 1.62601 0.760267 1.72979C1.01971 2.35246 1.33105 2.97514 1.64238 3.59781C1.95372 4.16859 2.26506 4.68749 2.47262 5.05071C2.73206 5.41394 2.93962 5.77716 3.19906 6.0885C3.45851 6.39984 3.61417 6.60739 3.66606 6.71117C3.76984 6.81495 3.82173 6.86683 3.87362 6.91872L4.0293 7.07439C4.13307 7.17817 4.28874 7.33384 4.4963 7.48951C4.70385 7.64518 4.9633 7.80084 5.22274 7.95651C5.48219 8.11218 5.79353 8.21596 6.10487 8.31974C6.46809 8.42352 6.77943 8.47541 7.09076 8.42352H7.8691C8.02477 8.42352 8.12856 8.37163 8.23233 8.26785L8.28421 8.21596C8.28421 8.16407 8.3361 8.16407 8.3361 8.11218C8.3361 8.06029 8.3361 8.0084 8.3361 7.90463C8.3361 7.69707 8.33611 7.5414 8.388 7.38573C8.43989 7.23006 8.43989 7.12629 8.49178 7.02251C8.54367 6.91873 8.59555 6.86684 8.64744 6.81495C8.69933 6.76306 8.75123 6.71117 8.75123 6.71117H8.8031C8.90688 6.65928 9.06256 6.71117 9.16634 6.81495C9.322 6.91873 9.47767 7.0744 9.58144 7.23006C9.68522 7.38573 9.8409 7.5414 10.0485 7.74896C10.256 7.95651 10.4117 8.11218 10.5155 8.16407L10.6711 8.26785C10.7749 8.31974 10.8787 8.37163 11.0344 8.42352C11.19 8.47541 11.2938 8.4754 11.3976 8.4754L13.1618 8.42352C13.3175 8.42352 13.4732 8.37163 13.5769 8.31974C13.6807 8.26785 13.7326 8.21596 13.7326 8.11218C13.7326 8.06029 13.7326 7.95652 13.7326 7.90463C13.6288 7.80085 13.6288 7.74895 13.6288 7.69706Z" fill="#2FD3AE"/>
</svg>
