<svg width="13" height="10" viewBox="0 0 13 10" fill="none" xmlns="http://www.w3.org/2000/svg">
<path d="M12.7355 1.43094C12.5861 0.873637 12.1477 0.433898 11.5911 0.283854C10.5739 0.00455158 6.5045 4.93423e-06 6.5045 4.93423e-06C6.5045 4.93423e-06 2.43578 -0.00454198 1.41795 0.262419C0.872334 0.411164 0.421553 0.860646 0.270859 1.4173C0.00259923 2.43448 9.51674e-07 4.54419 9.51674e-07 4.54419C9.51674e-07 4.54419 -0.0025972 6.66429 0.263714 7.67108C0.413109 8.22773 0.851549 8.66747 1.40885 8.81752C2.43643 9.09682 6.49476 9.10137 6.49476 9.10137C6.49476 9.10137 10.5641 9.10591 11.5813 8.8396C12.1373 8.69021 12.5777 8.25112 12.729 7.69446C12.998 6.67793 12.9999 4.56887 12.9999 4.56887C12.9999 4.56887 13.0129 2.44812 12.7355 1.43094ZM5.20282 6.49866L5.20607 2.60141L8.58823 4.55328L5.20282 6.49866Z" fill="#2FD3AE"/>
</svg>
